<svg width="16" height="16" viewBox="0 0 16 16" fill="none" xmlns="http://www.w3.org/2000/svg">
<g clip-path="url(#clip0_228_10218)">
<path d="M9.57342 2.71927L10.1913 2.10135C11.2151 1.07755 12.8751 1.07755 13.8989 2.10135C14.9227 3.12515 14.9227 4.78506 13.8989 5.80887L13.2809 6.42679M9.57342 2.71927C9.57342 2.71927 9.65066 4.03235 10.8093 5.19095C11.9679 6.34955 13.2809 6.42679 13.2809 6.42679M9.57342 2.71927L3.89259 8.40009C3.50782 8.78487 3.31543 8.97726 3.14997 9.18939C2.9548 9.43962 2.78746 9.71037 2.65094 9.99684C2.5352 10.2397 2.44916 10.4978 2.27708 11.014L1.54791 13.2015M13.2809 6.42679L7.60011 12.1076C7.21533 12.4924 7.02295 12.6848 6.81082 12.8502C6.56059 13.0454 6.28984 13.2127 6.00336 13.3493C5.7605 13.465 5.50239 13.551 4.98616 13.7231L2.79865 14.4523M2.79865 14.4523L2.26393 14.6305C2.00989 14.7152 1.72981 14.6491 1.54046 14.4597C1.35111 14.2704 1.28499 13.9903 1.36967 13.7363L1.54791 13.2015M2.79865 14.4523L1.54791 13.2015" stroke="#B1B0B5" stroke-width="1.5"/>
</g>
<defs>
<clipPath id="clip0_228_10218">
<rect width="16" height="16" fill="white"/>
</clipPath>
</defs>
</svg>
