<svg width="32" height="32" viewBox="0 0 32 32" fill="none" xmlns="http://www.w3.org/2000/svg">
<path d="M18.6667 2.6665H8.00008C5.05456 2.6665 2.66675 5.05432 2.66675 7.99984V23.9998C2.66675 26.9454 5.05456 29.3332 8.00008 29.3332H24.0001C26.9456 29.3332 29.3334 26.9454 29.3334 23.9998V13.3332M25.3334 2.6665V10.6665M29.3334 6.6665L21.3334 6.6665M29.3334 18.6665L25.4147 15.8451C23.3785 14.379 20.5957 14.5305 18.7306 16.209L13.2695 21.124C11.4045 22.8025 8.62168 22.9541 6.58542 21.4879L2.66675 18.6665M14.6667 11.3332C14.6667 13.1741 13.1744 14.6665 11.3334 14.6665C9.49247 14.6665 8.00008 13.1741 8.00008 11.3332C8.00008 9.49222 9.49247 7.99984 11.3334 7.99984C13.1744 7.99984 14.6667 9.49222 14.6667 11.3332Z" stroke="#45444C" stroke-width="2" stroke-linecap="round"/>
</svg>
