<svg width="20" height="20" viewBox="0 0 20 20" fill="none" xmlns="http://www.w3.org/2000/svg">
<path d="M5.39581 2.2627C6.80242 1.32506 8.6501 2.18475 8.92413 3.76367H11.6663C12.9319 3.76367 13.9582 4.78917 13.9583 6.05469C13.9583 6.39987 13.6785 6.67969 13.3333 6.67969C12.9881 6.67969 12.7083 6.39987 12.7083 6.05469C12.7082 5.47952 12.2415 5.01367 11.6663 5.01367H8.95831V15.4297H11.6663C12.2415 15.4297 12.7081 14.9638 12.7083 14.3887C12.7083 14.0435 12.9881 13.7637 13.3333 13.7637C13.6785 13.7637 13.9583 14.0435 13.9583 14.3887C13.9581 15.6542 12.9319 16.6797 11.6663 16.6797H8.92413C8.65011 18.2586 6.80241 19.1183 5.39581 18.1807L3.72882 17.0693C3.09142 16.6443 2.70834 15.9292 2.70831 15.1631V5.28027C2.70831 4.51405 3.09128 3.79807 3.72882 3.37305L5.39581 2.2627Z" fill="#8B8A92"/>
<path fill-rule="evenodd" clip-rule="evenodd" d="M14.5833 11.2498C14.3392 11.4939 14.3392 11.8896 14.5833 12.1337C14.8274 12.3778 15.2231 12.3778 15.4672 12.1337L16.5446 11.0563C17.1141 10.4867 17.1141 9.56338 16.5446 8.99387L15.4672 7.91646C15.2231 7.67238 14.8274 7.67238 14.5833 7.91646C14.3392 8.16053 14.3392 8.55626 14.5833 8.80034L15.183 9.40007L10.8333 9.4004C10.4882 9.4004 10.2083 9.65499 10.2083 10.0002C10.2083 10.3454 10.4882 10.6504 10.8333 10.6504L15.183 10.6501L14.5833 11.2498Z" fill="#8B8A92"/>
</svg>
