<svg width="20" height="20" viewBox="0 0 20 20" fill="none" xmlns="http://www.w3.org/2000/svg">
<path d="M14.0058 15.8427C12.8665 16.6253 11.4868 17.0833 10 17.0833C8.5133 17.0833 7.13354 16.6253 5.99419 15.8426C5.49098 15.4969 5.27593 14.8385 5.56851 14.3026C6.17503 13.1919 7.4248 12.5 10 12.5C12.5753 12.5 13.825 13.1919 14.4315 14.3027C14.7241 14.8385 14.509 15.497 14.0058 15.8427Z" fill="#B1B0B5"/>
<path d="M10.0001 10C11.3808 10 12.5001 8.88071 12.5001 7.5C12.5001 6.11929 11.3808 5 10.0001 5C8.61935 5 7.50006 6.11929 7.50006 7.5C7.50006 8.88071 8.61935 10 10.0001 10Z" fill="#B1B0B5"/>
<path d="M9.99969 2.4165C14.1877 2.4165 17.5835 5.8115 17.5837 9.99951C17.5837 14.1877 14.1879 17.5835 9.99969 17.5835C5.81168 17.5833 2.41669 14.1876 2.41669 9.99951C2.41686 5.81161 5.81179 2.41668 9.99969 2.4165Z" stroke="#8B8A92" stroke-width="1.5"/>
</svg>
