<svg width="24" height="24" viewBox="0 0 24 24" fill="none" xmlns="http://www.w3.org/2000/svg">
<path d="M0 2C0 0.89543 0.895431 0 2 0H16C20.4183 0 24 3.58172 24 8V22C24 23.1046 23.1046 24 22 24H8C3.58172 24 0 20.4183 0 16V2Z" fill="#7152F3"/>
<g clip-path="url(#clip0_242_9389)">
<path d="M9.33337 9.33325H14.6667V14.6666H9.33337V9.33325Z" stroke="white"/>
<path d="M14.6666 14.6673L16.6666 14.667C17.7712 14.6668 18.6668 15.5621 18.6669 16.6667C18.6671 17.7712 17.7718 18.6668 16.6673 18.667C15.5627 18.6672 14.6671 17.7719 14.6669 16.6673L14.6666 14.6673Z" stroke="white"/>
<path d="M9.33393 14.6673L7.33393 14.667C6.22936 14.6668 5.33379 15.5621 5.33362 16.6667C5.33344 17.7712 6.22873 18.6668 7.3333 18.667C8.43787 18.6672 9.33344 17.7719 9.33362 16.6673L9.33393 14.6673Z" stroke="white"/>
<path d="M14.6666 9.33343L16.6666 9.33374C17.7712 9.33391 18.6668 8.43862 18.6669 7.33406C18.6671 6.22949 17.7718 5.33391 16.6673 5.33374C15.5627 5.33357 14.6671 6.22886 14.6669 7.33343L14.6666 9.33343Z" stroke="white"/>
<path d="M9.33393 9.33343L7.33393 9.33374C6.22936 9.33391 5.33379 8.43862 5.33362 7.33406C5.33344 6.22949 6.22873 5.33391 7.3333 5.33374C8.43787 5.33357 9.33344 6.22886 9.33362 7.33343L9.33393 9.33343Z" stroke="white"/>
</g>
<defs>
<clipPath id="clip0_242_9389">
<rect x="4" y="4" width="16" height="16" rx="4.16667" fill="white"/>
</clipPath>
</defs>
</svg>
