<svg width="20" height="20" viewBox="0 0 20 20" fill="none" xmlns="http://www.w3.org/2000/svg">
<rect x="0.5" y="0.5" width="19" height="19" rx="9.5" fill="#482902"/>
<rect x="0.5" y="0.5" width="19" height="19" rx="9.5" stroke="#482902"/>
<path d="M13.4284 6.27036C13.7879 5.90988 14.3708 5.90988 14.7303 6.27036C15.0855 6.62643 15.0898 7.201 14.7434 7.56243L9.84287 13.7043C9.8358 13.7131 9.82824 13.7216 9.82023 13.7296C9.4607 14.0901 8.87778 14.0901 8.51824 13.7296L5.26965 10.4725C4.91012 10.112 4.91012 9.52753 5.26965 9.16704C5.62919 8.80656 6.21211 8.80656 6.57164 9.16704L9.1415 11.7437L13.4039 6.29798C13.4115 6.28829 13.4197 6.27907 13.4284 6.27036Z" fill="#F8C99D"/>
</svg>
