<svg width="50" height="50" viewBox="0 0 50 50" fill="none" xmlns="http://www.w3.org/2000/svg">
<path d="M32.0312 20.3125C32.0312 24.1958 28.8833 27.3438 25 27.3438C21.1167 27.3438 17.9688 24.1958 17.9688 20.3125C17.9688 16.4292 21.1167 13.2812 25 13.2812C28.8833 13.2812 32.0312 16.4292 32.0312 20.3125Z" fill="#D17D09"/>
<path fill-rule="evenodd" clip-rule="evenodd" d="M6.25 25C6.25 14.6447 14.6447 6.25 25 6.25C35.3553 6.25 43.75 14.6447 43.75 25C43.75 35.3553 35.3553 43.75 25 43.75C14.6447 43.75 6.25 35.3553 6.25 25ZM25 8.59375C15.9391 8.59375 8.59375 15.9391 8.59375 25C8.59375 28.8752 9.93732 32.4366 12.184 35.2438C13.8506 32.5592 17.5109 29.6875 25 29.6875C32.4892 29.6875 36.1494 32.5592 37.816 35.2438C40.0627 32.4366 41.4062 28.8752 41.4062 25C41.4062 15.9391 34.0609 8.59375 25 8.59375Z" fill="#D17D09"/>
</svg>
